<?xml version="1.0" encoding="UTF-8"?>
<svg width="39px" height="39px" viewBox="0 0 39 39" version="1.1" xmlns="http://www.w3.org/2000/svg" xmlns:xlink="http://www.w3.org/1999/xlink">
    <!-- Generator: Sketch 52.5 (67469) - http://www.bohemiancoding.com/sketch -->
    <title>视频-开始-播放 copy 3</title>
    <desc>Created with Sketch.</desc>
    <g id="Page-1" stroke="none" stroke-width="1" fill="none" fill-rule="evenodd">
        <g id="聊天记录-copy-5" transform="translate(-832.000000, -686.000000)">
            <g id="Group-8-Copy-2" transform="translate(257.000000, 627.000000)">
                <g id="Group-7-Copy-3" transform="translate(516.000000, 0.000000)">
                    <g id="视频-开始-播放-copy-3" transform="translate(58.000000, 58.000000)">
                        <g id="视频-开始-播放-copy-4">
                            <rect id="Rectangle" fill="#000000" opacity="0" x="0" y="0" width="40" height="40"></rect>
                            <circle id="Oval" stroke="#FFFFFF" stroke-width="2" fill-opacity="0.4" fill="#000000" fill-rule="nonzero" cx="20.25" cy="20.25" r="18.25"></circle>
                            <path d="M28.449219,20.6196469 C28.449219,20.7920015 28.3991806,21.2201081 27.9543945,21.4758601 L16.4844735,28.0976128 C16.0396875,28.3533648 15.6449398,28.1810102 15.4948245,28.0976128 C15.3447092,28.0142154 15,27.7584634 15,27.2413996 L15,13.9923344 C15,13.4752705 15.3447092,13.2195185 15.4948245,13.1361212 C15.6449398,13.0471639 16.0396875,12.8803692 16.4844735,13.1361212 L27.9543945,19.7578739 C28.3991806,20.0191857 28.449219,20.4472923 28.449219,20.6196469 Z" id="Shape" fill="#FFFFFF" fill-rule="nonzero"></path>
                        </g>
                    </g>
                </g>
            </g>
        </g>
    </g>
</svg>